<?xml version="1.0" encoding="utf-8"?>
<!-- Generator: Adobe Illustrator 28.2.0, SVG Export Plug-In . SVG Version: 6.00 Build 0)  -->
<svg version="1.1" id="Layer_1" xmlns="http://www.w3.org/2000/svg" xmlns:xlink="http://www.w3.org/1999/xlink" x="0px" y="0px"
	 viewBox="0 0 237.4 61.6" style="enable-background:new 0 0 237.4 61.6;" xml:space="preserve">
<style type="text/css">
	.st0{fill-rule:evenodd;clip-rule:evenodd;fill:#E4C590;}
	.st1{fill:#E4C590;}
	.st2{fill:#FFFFFF;}
	.st3{font-family:'SergioTrendy-Regular';}
	.st4{font-size:26.4522px;}
</style>
<rect width="237.4" height="61.6"/>
<g>
	<path class="st0" d="M39.7,48.4c-2.8,1.5-6.1,2.4-9.5,2.4c-11,0-20-9-20-20s9-20,20-20c3.1,0,5.9,0.7,8.5,1.9
		c-0.2,0.2-0.3,0.4-0.5,0.7c-0.7,1.1-1.2,2.5-1.6,3.9c-2-0.9-4.2-1.5-6.5-1.5c-8.3,0-15,6.7-15,15s6.7,15,15,15
		c4.3,0,8.2-1.8,10.9-4.7c-0.3,1.1-0.7,2.3-1.3,3.6c-0.4,0.9-0.5,1.5-0.5,2.5C39.3,47.6,39.5,48,39.7,48.4z M36.2,20.4
		c-0.2,3.7,1,7.3,4.1,8.6c1,0.9,1.6,2,1.6,3.4c0,0.3,0,0.6,0,0.9c-1.2,5.4-6,9.5-11.7,9.5c-6.6,0-12-5.4-12-12s5.4-12,12-12
		C32.4,18.8,34.4,19.4,36.2,20.4z"/>
	<path class="st1" d="M49,28.6c5-2.3,4.8-9.7,2-14.3c-2.8-4.7-7-4.8-9.9,0c-2.8,4.6-3,12,2,14.3c0.9,0.9,1.6,2.6,1.6,3.9
		c0,4.2,0.3,7.5-1.9,12.3c-0.4,0.9-0.6,1.5-0.6,2.1c0,2.1,1.7,3.8,3.8,3.8c2.1,0,3.8-1.7,3.8-3.8c0-0.5-0.2-1.2-0.6-2.1
		c-2.2-4.9-1.9-8.4-1.9-12.3C47.3,31.2,48,29.5,49,28.6z"/>
	<text transform="matrix(1 0 0 1 59.1963 29.7701)" class="st2 st3 st4">Zoe Periera</text>
	<text transform="matrix(1 0 0 1 59.1963 50.7911)" class="st1 st3 st4">caterers</text>
</g>
</svg>
